<!--?xml version="1.0" standalone="no"?--><svg version="1.0" xmlns="http://www.w3.org/2000/svg" width="300.000000pt" height="300.000000pt" viewBox="0 0 300.000000 300.000000" preserveAspectRatio="xMidYMid meet">
<metadata>
  <rdf:rdf xmlns:rdf="http://www.w3.org/1999/02/22-rdf-syntax-ns#" xmlns:rdfs="http://www.w3.org/2000/01/rdf-schema#" xmlns:dc="http://purl.org/dc/elements/1.1/">
    <rdf:description dc:title="Minnesota" dc:publisher="Hiox" dc:date="2015-04-24" dc:format="image/svg+xml" dc:language="en">
      <dc:creator>
        <rdf:bag>
          <rdf:li>svgimages.com</rdf:li>
        </rdf:bag>
      </dc:creator>
    </rdf:description>
  </rdf:rdf>
</metadata>
<g transform="translate(0.000000,300.000000) scale(0.100000,-0.100000)" fill="#dc1377" stroke="none">
<path stroke="#1c1d35" stroke-width="100" class="node" id="node1" d="M1070 2766 c0 -41 -3 -77 -7 -79 -5 -3 -35 -1 -68 4 -69 9 -503 14
-512 5 -3 -3 1 -34 11 -68 11 -44 14 -72 8 -93 -18 -63 -1 -267 28 -330 33
-73 40 -128 42 -350 3 -210 4 -222 26 -252 19 -27 22 -43 22 -137 0 -101 -1
-106 -25 -123 -14 -10 -36 -25 -48 -35 l-22 -16 25 -51 c14 -29 32 -51 41 -51
9 0 24 -9 34 -20 17 -18 17 -37 10 -267 -4 -137 -8 -311 -9 -388 l-1 -140 280
-6 c244 -6 1301 -14 1331 -10 8 1 10 24 6 74 -4 65 -9 76 -41 114 -21 25 -45
42 -57 43 -24 0 -124 102 -124 126 0 8 -17 22 -37 30 -20 9 -49 29 -64 45 -17
19 -37 29 -56 29 -18 0 -38 11 -59 33 -31 32 -31 32 -32 150 -1 69 3 117 8
117 6 0 10 9 10 19 0 11 6 21 13 24 17 6 -14 59 -42 72 -24 11 -28 47 -6 65 8
7 15 20 15 29 0 23 35 53 93 80 l47 23 0 96 c1 135 10 166 66 223 27 27 53 49
60 49 6 0 71 62 145 138 154 158 195 188 305 226 43 15 90 33 104 39 32 15
100 69 100 80 0 4 -25 7 -55 6 -39 -2 -60 2 -73 14 -15 14 -39 17 -118 17 -93
0 -100 1 -109 23 -14 30 -70 26 -105 -8 -15 -14 -33 -25 -42 -25 -9 0 -20 -4
-23 -10 -13 -20 -52 -9 -88 25 -20 19 -46 35 -57 35 -13 0 -24 10 -30 25 -18
47 -100 45 -100 -2 0 -37 -26 -13 -34 32 -6 31 -10 35 -39 35 -25 0 -29 3 -17
10 13 9 12 12 -4 25 -11 8 -28 15 -37 15 -10 0 -21 5 -24 10 -3 6 -22 10 -41
10 -20 0 -44 5 -55 11 -16 8 -29 7 -55 -6 -19 -9 -34 -20 -34 -25 0 -6 -18
-10 -40 -10 -23 0 -40 5 -40 11 0 22 -35 38 -81 39 -29 0 -51 6 -59 15 -9 11
-22 14 -41 10 -40 -9 -69 13 -69 53 0 39 -17 119 -31 144 -5 10 -9 27 -9 38 0
24 -28 40 -74 40 l-36 0 0 -74z"></path>

</g>
<g transform="translate(0.000000,300.000000) scale(0.100000,-0.100000)" fill="#FFFFFF" stroke="none">

</g>
</svg>
